<?xml version="1.0" encoding="UTF-8" standalone="no"?><!-- Generator: Gravit.io --><svg xmlns="http://www.w3.org/2000/svg" xmlns:xlink="http://www.w3.org/1999/xlink" style="isolation:isolate" viewBox="0 0 466 466" width="466pt" height="466pt"><defs><clipPath id="_clipPath_NkHCyNE9f1oUOJwXyqg5spYKOvKrs1pr"><rect width="466" height="466"/></clipPath></defs><g clip-path="url(#_clipPath_NkHCyNE9f1oUOJwXyqg5spYKOvKrs1pr)"><clipPath id="_clipPath_gKcacsqtLwjurEuf1amNRkYoaO8r9jSw"><rect x="0" y="0" width="466" height="466" transform="matrix(1,0,0,1,0,0)" fill="rgb(255,255,255)"/></clipPath><g clip-path="url(#_clipPath_gKcacsqtLwjurEuf1amNRkYoaO8r9jSw)"><g><clipPath id="_clipPath_zpT2DfLgP2LODe8zoeg1ZMSKQnexjIZo"><rect x="0" y="0" width="466" height="466" transform="matrix(1,0,0,1,0,0)" fill="rgb(255,255,255)"/></clipPath><g clip-path="url(#_clipPath_zpT2DfLgP2LODe8zoeg1ZMSKQnexjIZo)"><g><g><g filter="url(#WUlL4kG5sU7fas8TxJFiw5HtotVY8o7u)"><path d=" M 68.244 68.244 C 159.175 -22.687 306.825 -22.687 397.756 68.244 C 488.687 159.175 488.687 306.825 397.756 397.756 C 306.825 488.687 159.175 488.687 68.244 397.756 C -22.687 306.825 -22.687 159.175 68.244 68.244 Z " fill="rgb(0,0,0)"/></g><defs><filter id="WUlL4kG5sU7fas8TxJFiw5HtotVY8o7u" x="-200%" y="-200%" width="400%" height="400%" filterUnits="objectBoundingBox" color-interpolation-filters="sRGB"><feGaussianBlur xmlns="http://www.w3.org/2000/svg" in="SourceGraphic" stdDeviation="2.146804531419514"/><feOffset xmlns="http://www.w3.org/2000/svg" dx="0" dy="0" result="pf_100_offsetBlur"/><feFlood xmlns="http://www.w3.org/2000/svg" flood-color="#000000" flood-opacity="0.65"/><feComposite xmlns="http://www.w3.org/2000/svg" in2="pf_100_offsetBlur" operator="in" result="pf_100_dropShadow"/><feBlend xmlns="http://www.w3.org/2000/svg" in="SourceGraphic" in2="pf_100_dropShadow" mode="normal"/></filter></defs><linearGradient id="_lgradient_0" x1="0.1580175804663446" y1="0.17157314854051892" x2="0.7302500344353033" y2="0.6985935940783385" gradientTransform="matrix(392.027,0,0,361.053,24.629,25.336)" gradientUnits="userSpaceOnUse"><stop offset="0%" stop-opacity="1" style="stop-color:rgb(200,0,255)"/><stop offset="98.69565217391305%" stop-opacity="1" style="stop-color:rgb(0,15,151)"/></linearGradient><path d=" M 86.576 386.389 C 3.98 303.793 3.98 169.879 86.576 87.283 C 169.172 4.687 303.086 4.687 385.682 87.283 C 426.98 128.581 426.98 195.538 385.682 236.836 C 344.384 278.134 277.427 278.134 236.129 236.836 C 194.831 195.538 127.874 195.538 86.576 236.836 C 45.278 278.134 45.278 345.091 86.576 386.389 Z " fill="url(#_lgradient_0)"/><path d=" M 137.275 287.536 C 151.544 273.267 174.714 273.267 188.983 287.536 C 203.252 301.805 203.252 324.974 188.983 339.243 C 174.714 353.512 151.544 353.512 137.275 339.243 C 123.006 324.974 123.006 301.805 137.275 287.536 Z " fill="rgb(43,11,166)"/><path d=" M 286.829 137.983 C 301.097 123.714 324.267 123.714 338.536 137.983 C 352.805 152.252 352.805 175.421 338.536 189.69 C 324.267 203.959 301.097 203.959 286.829 189.69 C 272.56 175.421 272.56 152.252 286.829 137.983 Z " fill="rgb(0,0,0)"/></g></g></g></g></g></g></svg>