<?xml version="1.0" encoding="UTF-8" standalone="no"?><!DOCTYPE svg PUBLIC "-//W3C//DTD SVG 1.1//EN" "http://www.w3.org/Graphics/SVG/1.1/DTD/svg11.dtd"><svg width="100%" height="100%" viewBox="0 0 466 466" version="1.1" xmlns="http://www.w3.org/2000/svg" xmlns:xlink="http://www.w3.org/1999/xlink" xml:space="preserve" xmlns:serif="http://www.serif.com/" style="fill-rule:evenodd;clip-rule:evenodd;stroke-linejoin:round;stroke-miterlimit:2;"><g><path d="M68.244,68.244c90.931,-90.931 238.581,-90.931 329.512,0c90.931,90.931 90.931,238.581 0,329.512c-90.931,90.931 -238.581,90.931 -329.512,0c-90.931,-90.931 -90.931,-238.581 0,-329.512Z" style="fill:#140000;fill-rule:nonzero;"/><path d="M137.275,287.536c14.269,-14.269 37.439,-14.269 51.708,0c14.269,14.269 14.269,37.438 0,51.707c-14.269,14.269 -37.439,14.269 -51.708,0c-14.269,-14.269 -14.269,-37.438 0,-51.707Z" style="fill:url(#_Linear1);"/><path d="M86.576,386.389c-82.596,-82.596 -82.596,-216.51 -0,-299.106c82.596,-82.596 216.51,-82.596 299.106,-0c41.298,41.298 41.298,108.255 0,149.553c-41.298,41.298 -108.255,41.298 -149.553,0c-41.298,-41.298 -108.255,-41.298 -149.553,0c-41.298,41.298 -41.298,108.255 -0,149.553Z" style="fill:url(#_Linear2);"/><path d="M286.829,137.983c14.268,-14.269 37.438,-14.269 51.707,0c14.269,14.269 14.269,37.438 0,51.707c-14.269,14.269 -37.439,14.269 -51.707,0c-14.269,-14.269 -14.269,-37.438 0,-51.707Z" style="fill-rule:nonzero;"/></g><defs><linearGradient id="_Linear1" x1="0" y1="0" x2="1" y2="0" gradientUnits="userSpaceOnUse" gradientTransform="matrix(-372.155,175.445,-175.445,-372.155,402.037,108.36)"><stop offset="0" style="stop-color:#fe1e25;stop-opacity:1"/><stop offset="1" style="stop-color:#b80b1b;stop-opacity:1"/></linearGradient><linearGradient id="_Linear2" x1="0" y1="0" x2="1" y2="0" gradientUnits="userSpaceOnUse" gradientTransform="matrix(-372.155,175.445,-175.445,-372.155,402.037,108.36)"><stop offset="0" style="stop-color:#f00;stop-opacity:1"/><stop offset="1" style="stop-color:#b80b1b;stop-opacity:1"/></linearGradient></defs></svg>