<?xml version="1.0" encoding="UTF-8" standalone="no"?>
<!DOCTYPE svg PUBLIC "-//W3C//DTD SVG 1.1//EN" "http://www.w3.org/Graphics/SVG/1.1/DTD/svg11.dtd">
<svg width="100%" height="100%" viewBox="0 0 466 466" version="1.1" xmlns="http://www.w3.org/2000/svg" xmlns:xlink="http://www.w3.org/1999/xlink" xml:space="preserve" xmlns:serif="http://www.serif.com/" style="fill-rule:evenodd;clip-rule:evenodd;stroke-linejoin:round;stroke-miterlimit:2;">
    <path d="M68.244,68.244C159.175,-22.687 306.825,-22.687 397.756,68.244C488.687,159.175 488.687,306.825 397.756,397.756C306.825,488.687 159.175,488.687 68.244,397.756C-22.687,306.825 -22.687,159.175 68.244,68.244ZM137.275,287.536C123.006,301.805 123.006,324.974 137.275,339.243C151.544,353.512 174.714,353.512 188.983,339.243C203.252,324.974 203.252,301.805 188.983,287.536C174.714,273.267 151.544,273.267 137.275,287.536ZM86.576,386.389C45.278,345.091 45.278,278.134 86.576,236.836C127.874,195.538 194.831,195.538 236.129,236.836C277.427,278.134 344.384,278.134 385.682,236.836C426.98,195.538 426.98,128.581 385.682,87.283C303.086,4.687 169.172,4.687 86.576,87.283C3.98,169.879 3.98,303.793 86.576,386.389ZM286.829,137.983C301.097,123.714 324.267,123.714 338.536,137.983C352.805,152.252 352.805,175.421 338.536,189.69C324.267,203.959 301.097,203.959 286.829,189.69C272.56,175.421 272.56,152.252 286.829,137.983Z" style="fill:rgb(20,0,0);fill-rule:nonzero;"/>
</svg>
